<svg xmlns="http://www.w3.org/2000/svg" viewBox="0 0 256 256">
  <defs>
    <linearGradient id="bg" x1="0" y1="0" x2="1" y2="1">
      <stop offset="0" stop-color="#0b1220"/>
      <stop offset="1" stop-color="#101a33"/>
    </linearGradient>
  </defs>

  <!-- rounded background -->
  <rect x="16" y="16" width="224" height="224" rx="56" fill="url(#bg)"/>

  <!-- 4 color bars (cyan/red/yellow/purple) -->
  <rect x="44" y="48" width="12" height="160" rx="6" fill="#00D4FF"/>
  <rect x="62" y="48" width="12" height="160" rx="6" fill="#FF3B30"/>
  <rect x="80" y="48" width="12" height="160" rx="6" fill="#FFCC00"/>
  <rect x="98" y="48" width="12" height="160" rx="6" fill="#A855F7"/>

  <!-- CN letters -->
  <path d="M166 82c-10-10-23-15-39-15-34 0-58 25-58 61s24 61 58 61c16 0 29-5 39-15l-14-14c-6 6-14 9-25 9-21 0-35-16-35-41s14-41 35-41c11 0 19 3 25 9l14-13z"
        fill="#ffffff" opacity="0.95"/>
  <path d="M187 67h19v122h-20l-55-83v83h-19V67h20l55 83V67z"
        fill="#ffffff" opacity="0.95"/>
</svg>
